<svg xmlns="http://www.w3.org/2000/svg" viewBox="0 0 428.1 680.0" width="428" height="680"><g fill="none" stroke="currentColor" stroke-linecap="round" stroke-linejoin="round"><path d="M26.0 544.5L35.5 547.5 M35.5 547.5L44.5 544.4 M35.5 559.8L35.5 547.5 M252.3 614.8L261.7 617.7 M261.7 617.7L270.7 614.6 M261.7 630.1L261.7 617.7 M383.6 569.8L393.1 572.8 M393.1 572.8L402.1 569.7 M393.1 585.1L393.1 572.8 M157.3 499.6L166.8 502.5 M166.8 502.5L175.8 499.4 M166.8 514.9L166.8 502.5 M36.7 548.7L253.5 616.0 M253.5 625.1L253.5 616.0 M168.0 503.8L254.1 530.5 M269.5 535.3L384.8 571.1 M43.2 545.6L165.5 503.8 M269.5 615.9L391.8 574.0 M269.5 625.0L269.5 615.9 M28.5 556.9L35.4 559.0 M35.4 559.0L37.1 558.5 M35.4 583.8L35.4 559.0 M254.7 627.1L261.7 629.3 M261.7 629.3L268.3 627.0 M261.7 654.0L261.7 629.3 M391.3 583.8L393.0 584.3 M393.0 584.3L399.6 582.1 M393.0 609.0L393.0 584.3 M165.0 513.5L166.7 514.1 M166.7 514.1L168.4 513.5 M166.7 538.8L166.7 514.1 M28.5 315.0L35.4 317.2 M35.4 317.2L37.1 316.6 M35.4 546.7L35.4 317.2 M254.7 385.3L261.7 387.5 M261.7 387.5L268.3 385.2 M261.7 616.9L261.7 387.5 M391.3 342.0L393.0 342.5 M393.0 342.5L399.6 340.2 M393.0 572.0L393.0 342.5 M166.7 501.7L166.7 357.3 M166.7 312.4L166.7 309.2 M166.7 294.7L166.7 291.5 M166.7 277.1L166.7 273.9 M26.0 302.7L35.5 305.6 M35.5 305.6L44.5 302.6 M35.5 318.0L35.5 305.6 M252.3 373.0L261.7 375.9 M261.7 375.9L270.7 372.8 M261.7 388.3L261.7 375.9 M383.6 328.0L393.1 330.9 M393.1 330.9L402.1 327.9 M393.1 343.3L393.1 330.9 M157.3 257.8L163.6 259.7 M36.7 306.9L253.5 374.2 M253.5 383.3L253.5 374.2 M184.9 267.2L189.5 268.6 M212.6 275.8L217.2 277.2 M238.7 283.9L244.9 285.8 M269.5 293.4L272.6 294.4 M294.1 301.1L298.7 302.5 M321.8 309.7L326.4 311.1 M347.9 317.8L354.0 319.7 M375.6 326.4L384.8 329.2 M43.2 303.8L50.9 301.2 M269.5 374.1L391.8 332.2 M269.5 383.1L269.5 374.1 M52.4 298.4L59.4 300.6 M59.4 300.6L184.1 257.9 M59.4 309.6L59.4 300.6 M51.2 296.4L60.6 299.3 M60.6 299.3L68.5 296.6 M60.6 309.9L60.6 299.3 M183.8 268.5L185.4 269.0 M79.8 306.9L86.7 309.1 M86.7 309.1L211.5 266.4 M86.7 318.1L86.7 309.1 M78.5 304.9L88.0 307.8 M88.0 307.8L95.8 305.1 M88.0 318.4L88.0 307.8 M211.1 277.0L212.7 277.5 M107.2 315.4L114.1 317.5 M114.1 317.5L238.8 274.9 M114.1 326.6L114.1 317.5 M105.9 313.4L115.4 316.3 M115.4 316.3L123.2 313.6 M115.4 326.9L115.4 316.3 M238.5 285.5L240.1 286.0 M134.5 323.9L141.5 326.0 M141.5 326.0L254.0 287.5 M141.5 335.1L141.5 326.0 M133.3 321.8L142.7 324.8 M142.7 324.8L150.5 322.1 M142.7 335.4L142.7 324.8 M161.9 332.4L168.8 334.5 M168.8 334.5L254.0 305.4 M269.2 300.2L293.6 291.8 M168.8 343.6L168.8 334.5 M160.6 330.3L170.1 333.3 M170.1 333.3L177.9 330.6 M170.1 343.9L170.1 333.3 M293.2 302.5L294.8 302.9 M189.3 340.9L196.2 343.0 M196.2 343.0L254.0 323.2 M269.2 318.0L320.9 300.3 M196.2 352.1L196.2 343.0 M188.0 338.8L197.5 341.8 M197.5 341.8L205.3 339.1 M197.5 352.4L197.5 341.8 M320.6 311.0L322.2 311.4 M216.6 349.4L223.6 351.5 M223.6 351.5L254.0 341.1 M269.2 335.9L348.3 308.8 M223.6 360.6L223.6 351.5 M215.4 347.3L224.8 350.3 M224.8 350.3L232.6 347.6 M224.8 360.9L224.8 350.3 M348.0 319.5L349.5 319.9 M244.0 357.9L250.9 360.0 M250.9 360.0L254.0 359.0 M269.2 353.8L375.6 317.3 M250.9 369.1L250.9 360.0 M242.7 355.8L252.2 358.8 M252.2 358.8L253.7 358.2 M252.2 369.4L252.2 358.8 M375.3 327.9L376.9 328.4" stroke-width="0.93" opacity="0.45"/><path d="M35.5 559.8L37.3 559.2 M26.0 556.9L35.5 559.8 M42.9 543.9L44.5 544.4 M26.0 544.5L27.8 543.9 M26.0 556.9L26.0 544.5 M44.5 546.2L44.5 544.4 M261.7 630.1L270.7 627.0 M252.3 627.1L261.7 630.1 M269.2 614.1L270.7 614.6 M252.3 614.8L254.1 614.2 M252.3 627.1L252.3 614.8 M270.7 627.0L270.7 614.6 M393.1 585.1L402.1 582.0 M389.9 584.2L393.1 585.1 M400.5 569.2L402.1 569.7 M383.6 569.8L385.4 569.2 M383.6 571.6L383.6 569.8 M402.1 582.0L402.1 569.7 M166.8 514.9L168.6 514.3 M163.6 513.9L166.8 514.9 M174.2 498.9L175.8 499.4 M157.3 499.6L159.1 499.0 M157.3 501.4L157.3 499.6 M175.8 501.2L175.8 499.4 M36.7 557.8L253.5 625.1 M43.3 546.5L253.9 611.9 M36.7 548.7L43.3 546.5 M36.7 557.8L36.7 548.7 M168.0 512.8L254.1 539.6 M269.5 544.3L371.0 575.8 M174.6 501.5L254.6 526.3 M269.9 531.1L385.3 566.9 M168.0 503.8L174.6 501.5 M168.0 512.8L168.0 503.8 M57.0 550.0L165.5 512.8 M158.6 501.6L165.5 503.8 M42.4 541.4L158.6 501.6 M165.5 512.8L165.5 503.8 M269.5 625.0L391.8 583.1 M384.9 571.9L391.8 574.0 M268.7 611.6L384.9 571.9 M391.8 583.1L391.8 574.0 M35.4 583.8L42.0 581.5 M28.5 581.6L35.4 583.8 M28.5 581.6L28.5 556.9 M42.0 581.5L42.0 560.1 M261.7 654.0L268.3 651.7 M254.7 651.8L261.7 654.0 M254.7 651.8L254.7 627.1 M268.3 651.7L268.3 627.0 M393.0 609.0L399.6 606.8 M386.1 606.9L393.0 609.0 M386.1 606.9L386.1 585.5 M399.6 606.8L399.6 582.1 M166.7 538.8L173.4 536.5 M159.8 536.6L166.7 538.8 M159.8 536.6L159.8 515.2 M173.4 536.5L173.4 515.1 M35.4 546.7L42.0 544.4 M28.5 544.5L35.4 546.7 M28.5 544.5L28.5 315.0 M42.0 544.4L42.0 318.2 M261.7 616.9L268.3 614.7 M254.7 614.8L261.7 616.9 M254.7 614.8L254.7 385.3 M268.3 614.7L268.3 385.2 M393.0 572.0L399.6 569.7 M386.1 569.8L393.0 572.0 M386.1 569.8L386.1 343.5 M399.6 569.7L399.6 340.2 M166.7 501.7L173.4 499.5 M159.8 499.6L166.7 501.7 M159.8 499.6L159.8 355.1 M159.8 339.1L159.8 329.5 M159.8 315.0L159.8 311.8 M159.8 297.4L159.8 294.2 M159.8 278.1L159.8 276.5 M173.4 499.5L173.4 359.8 M173.4 327.8L173.4 324.5 M173.4 310.1L173.4 306.9 M173.4 292.5L173.4 289.2 M173.4 274.8L173.4 273.2 M35.5 318.0L37.3 317.4 M26.0 315.1L35.5 318.0 M42.9 302.1L44.5 302.6 M26.0 302.7L27.8 302.1 M26.0 315.1L26.0 302.7 M44.5 304.3L44.5 302.6 M261.7 388.3L270.7 385.2 M252.3 385.3L261.7 388.3 M269.2 372.3L270.7 372.8 M252.3 373.0L254.1 372.3 M252.3 385.3L252.3 373.0 M270.7 385.2L270.7 372.8 M393.1 343.3L402.1 340.2 M389.9 342.3L393.1 343.3 M400.5 327.4L402.1 327.9 M383.6 328.0L385.4 327.4 M383.6 329.8L383.6 328.0 M402.1 340.2L402.1 327.9 M166.8 273.1L168.6 272.4 M157.3 257.8L159.1 257.1 M157.3 259.5L157.3 257.8 M36.7 315.9L253.5 383.3 M43.3 304.6L253.9 370.0 M36.7 306.9L43.3 304.6 M36.7 315.9L36.7 306.9 M171.1 271.9L175.7 273.4 M198.8 280.5L203.4 282.0 M224.9 288.7L231.0 290.6 M252.6 297.2L254.1 297.7 M280.2 305.8L284.9 307.3 M307.9 314.4L312.5 315.9 M335.6 323.0L340.2 324.5 M361.7 331.1L371.0 334.0 M185.4 263.0L194.6 265.9 M213.1 271.6L222.3 274.5 M240.7 280.2L250.0 283.1 M269.9 289.3L276.1 291.2 M296.1 297.4L303.8 299.8 M323.8 306.0L331.4 308.4 M349.9 314.1L359.1 316.9 M377.6 322.7L385.3 325.1 M158.6 259.8L160.3 260.3 M42.4 299.6L50.0 297.0 M59.2 293.8L158.6 259.8 M269.5 383.1L391.8 341.3 M384.9 330.0L391.8 332.2 M268.7 369.8L384.9 330.0 M391.8 341.3L391.8 332.2 M59.4 309.6L184.1 266.9 M52.4 307.5L59.4 309.6 M52.4 298.4L54.0 297.9 M63.1 294.8L169.6 258.3 M52.4 307.5L52.4 298.4 M184.1 266.9L184.1 257.9 M63.8 310.6L68.5 309.0 M59.0 293.7L68.5 296.6 M51.2 296.4L59.0 293.7 M51.2 307.0L51.2 296.4 M68.5 309.0L68.5 296.6 M177.5 271.6L185.4 269.0 M174.4 270.7L177.5 271.6 M175.9 253.7L185.4 256.6 M168.1 256.3L175.9 253.7 M185.4 269.0L185.4 256.6 M168.1 258.1L168.1 256.3 M86.7 318.1L211.5 275.4 M79.8 316.0L86.7 318.1 M79.8 306.9L81.3 306.4 M90.4 303.3L198.4 266.3 M79.8 316.0L79.8 306.9 M211.5 275.4L211.5 266.4 M91.1 319.1L95.8 317.5 M86.3 302.2L95.8 305.1 M78.5 304.9L86.3 302.2 M78.5 315.4L78.5 304.9 M95.8 317.5L95.8 305.1 M204.9 280.1L212.7 277.5 M201.8 279.2L204.9 280.1 M203.3 262.2L212.7 265.1 M195.4 264.8L203.3 262.2 M212.7 277.5L212.7 265.1 M195.4 266.6L195.4 264.8 M114.1 326.6L238.8 283.9 M107.2 324.5L114.1 326.6 M107.2 315.4L108.7 314.9 M117.8 311.7L225.8 274.8 M107.2 324.5L107.2 315.4 M238.8 283.9L238.8 274.9 M118.5 327.6L123.2 326.0 M113.7 310.7L123.2 313.6 M105.9 313.4L113.7 310.7 M105.9 323.9L105.9 313.4 M123.2 326.0L123.2 313.6 M232.3 288.6L240.1 286.0 M229.1 287.7L232.3 288.6 M230.6 270.7L240.1 273.6 M222.8 273.3L230.6 270.7 M240.1 286.0L240.1 273.6 M222.8 275.1L222.8 273.3 M141.5 335.1L254.0 296.6 M134.5 332.9L141.5 335.1 M134.5 323.9L136.0 323.4 M145.2 320.2L251.6 283.8 M134.5 332.9L134.5 323.9 M145.9 336.1L150.5 334.5 M141.1 319.2L150.5 322.1 M133.3 321.8L141.1 319.2 M133.3 332.4L133.3 321.8 M150.5 334.5L150.5 322.1 M250.2 281.8L253.3 280.8 M250.2 283.6L250.2 281.8 M168.8 343.6L254.0 314.4 M269.2 309.2L293.6 300.9 M161.9 341.4L168.8 343.6 M161.9 332.4L163.4 331.9 M172.5 328.7L254.7 300.6 M269.9 295.4L279.0 292.3 M161.9 341.4L161.9 332.4 M293.6 300.9L293.6 291.8 M173.2 344.6L177.9 343.0 M168.4 327.7L177.9 330.6 M160.6 330.3L168.4 327.7 M160.6 340.9L160.6 330.3 M177.9 343.0L177.9 330.6 M287.0 305.6L294.8 302.9 M283.8 304.6L287.0 305.6 M285.4 287.7L294.8 290.6 M277.5 290.3L285.4 287.7 M294.8 302.9L294.8 290.6 M277.5 292.1L277.5 290.3 M196.2 352.1L254.0 332.3 M269.2 327.1L320.9 309.4 M189.3 349.9L196.2 352.1 M189.3 340.9L190.8 340.4 M199.9 337.2L254.7 318.5 M269.9 313.3L307.9 300.3 M189.3 349.9L189.3 340.9 M320.9 309.4L320.9 300.3 M200.6 353.1L205.3 351.5 M195.8 336.2L205.3 339.1 M188.0 338.8L195.8 336.2 M188.0 349.4L188.0 338.8 M205.3 351.5L205.3 339.1 M314.4 314.1L322.2 311.4 M311.2 313.1L314.4 314.1 M312.7 296.1L322.2 299.1 M304.9 298.8L312.7 296.1 M322.2 311.4L322.2 299.1 M304.9 300.6L304.9 298.8 M223.6 360.6L254.0 350.2 M269.2 345.0L348.3 317.9 M216.6 358.4L223.6 360.6 M216.6 349.4L218.1 348.9 M227.3 345.7L254.6 336.4 M269.9 331.2L335.3 308.8 M216.6 358.4L216.6 349.4 M348.3 317.9L348.3 308.8 M227.9 361.6L232.6 360.0 M223.2 344.7L232.6 347.6 M215.4 347.3L223.2 344.7 M215.4 357.9L215.4 347.3 M232.6 360.0L232.6 347.6 M341.7 322.6L349.5 319.9 M338.6 321.6L341.7 322.6 M340.1 304.6L349.5 307.6 M332.3 307.3L340.1 304.6 M349.5 319.9L349.5 307.6 M332.3 309.1L332.3 307.3 M250.9 369.1L254.0 368.0 M269.2 362.8L375.6 326.4 M244.0 366.9L250.9 369.1 M244.0 357.9L245.5 357.3 M269.8 349.0L361.1 317.8 M244.0 366.9L244.0 357.9 M375.6 326.4L375.6 317.3 M250.5 353.2L253.7 354.1 M242.7 355.8L250.5 353.2 M242.7 366.4L242.7 355.8 M369.1 331.1L376.9 328.4 M365.9 330.1L369.1 331.1 M367.4 313.1L376.9 316.1 M359.6 315.8L367.4 313.1 M376.9 328.4L376.9 316.1 M359.6 317.6L359.6 315.8" stroke-width="1.35" opacity="0.55"/><path d="M28.5 73.2L35.4 75.4 M35.4 75.4L42.0 73.1 M35.4 304.8L35.4 75.4 M254.7 143.5L261.7 145.6 M261.7 145.6L268.3 143.4 M261.7 375.1L261.7 145.6 M386.1 98.5L393.0 100.7 M393.0 100.7L399.6 98.4 M393.0 330.1L393.0 100.7 M159.8 28.3L166.7 30.4 M166.7 30.4L173.4 28.2 M166.7 258.3L166.7 30.4" stroke-width="1.50" opacity="0.85"/><path d="M35.4 304.8L42.0 302.6 M28.5 302.7L35.4 304.8 M35.1 71.0L42.0 73.1 M28.5 73.2L35.1 71.0 M28.5 302.7L28.5 73.2 M42.0 302.6L42.0 73.1 M261.7 375.1L268.3 372.8 M254.7 372.9L261.7 375.1 M261.3 141.2L268.3 143.4 M254.7 143.5L261.3 141.2 M254.7 372.9L254.7 143.5 M268.3 372.8L268.3 143.4 M393.0 330.1L399.6 327.9 M386.1 328.0L393.0 330.1 M392.7 96.2L399.6 98.4 M386.1 98.5L392.7 96.2 M386.1 328.0L386.1 98.5 M399.6 327.9L399.6 98.4 M159.8 257.7L165.0 259.4 M166.4 26.0L173.4 28.2 M159.8 28.3L166.4 26.0 M159.8 257.7L159.8 28.3 M173.4 252.8L173.4 28.2" stroke-width="2.60" opacity="1.0"/></g></svg>