<svg xmlns="http://www.w3.org/2000/svg" viewBox="0 0 642.0 680.0" width="642" height="680"><g fill="none" stroke="currentColor" stroke-linecap="round" stroke-linejoin="round"><path d="M26.0 482.3L40.9 486.9 M40.9 486.9L55.0 482.1 M40.9 506.3L40.9 486.9 M380.9 592.5L395.8 597.1 M395.8 597.1L409.9 592.3 M395.8 616.5L395.8 597.1 M587.0 522.0L601.8 526.6 M601.8 526.6L616.0 521.7 M601.8 546.0L601.8 526.6 M232.0 411.8L246.9 416.4 M246.9 416.4L261.0 411.5 M246.9 435.8L246.9 416.4 M42.7 488.8L382.8 594.4 M382.8 608.6L382.8 594.4 M248.8 418.3L383.6 460.2 M406.5 467.3L588.8 523.9 M53.0 484.0L244.9 418.4 M407.9 594.2L599.8 528.5 M407.9 608.4L407.9 594.2 M29.9 501.6L40.8 505.0 M40.8 505.0L44.2 503.8 M40.8 543.8L40.8 505.0 M384.8 611.8L395.7 615.2 M395.7 615.2L406.1 611.7 M395.7 654.0L395.7 615.2 M598.6 543.7L601.7 544.7 M601.7 544.7L612.1 541.2 M601.7 583.5L601.7 544.7 M243.7 433.5L246.8 434.5 M246.8 434.5L250.2 433.3 M246.8 473.3L246.8 434.5 M29.9 122.3L40.8 125.7 M40.8 125.7L44.2 124.5 M40.8 485.6L40.8 125.7 M384.8 232.5L395.7 235.9 M395.7 235.9L406.1 232.3 M395.7 595.8L395.7 235.9 M598.6 164.4L601.7 165.3 M601.7 165.3L612.1 161.8 M601.7 525.3L601.7 165.3 M246.8 415.1L246.8 186.9 M246.8 141.9L246.8 140.3 M246.8 117.8L246.8 113.0 M246.8 90.5L246.8 84.1 M246.8 61.6L246.8 56.8 M26.0 102.9L40.9 107.5 M40.9 107.5L55.0 102.7 M40.9 126.9L40.9 107.5 M380.9 213.1L395.8 217.7 M395.8 217.7L409.9 212.9 M395.8 237.1L395.8 217.7 M587.0 142.6L601.8 147.2 M601.8 147.2L616.0 142.4 M601.8 166.6L601.8 147.2 M232.0 32.4L243.6 36.0 M42.7 109.5L382.8 215.1 M382.8 229.3L382.8 215.1 M274.8 47.0L284.0 49.9 M317.7 60.4L326.9 63.2 M360.6 73.7L369.8 76.5 M403.5 87.0L412.7 89.9 M446.4 100.3L455.6 103.2 M489.3 113.6L498.5 116.5 M532.2 126.9L541.4 129.8 M575.1 140.3L588.8 144.5 M53.0 104.7L65.2 100.5 M407.9 214.9L599.8 149.2 M407.9 229.1L407.9 214.9" stroke-width="0.93" opacity="0.45"/><path d="M40.9 506.3L45.6 504.7 M26.0 501.7L40.9 506.3 M51.7 481.0L55.0 482.1 M26.0 482.3L29.1 481.2 M26.0 501.7L26.0 482.3 M55.0 485.3L55.0 482.1 M395.8 616.5L409.9 611.6 M380.9 611.9L395.8 616.5 M406.6 591.2L409.9 592.3 M380.9 592.5L384.1 591.4 M380.9 611.9L380.9 592.5 M409.9 611.6L409.9 592.3 M601.8 546.0L616.0 541.1 M596.9 544.4L601.8 546.0 M612.7 520.7L616.0 521.7 M587.0 522.0L590.1 520.9 M587.0 525.2L587.0 522.0 M616.0 541.1L616.0 521.7 M246.9 435.8L251.6 434.2 M241.9 434.2L246.9 435.8 M257.7 410.5L261.0 411.5 M232.0 411.8L235.2 410.7 M232.0 415.0L232.0 411.8 M261.0 414.8L261.0 411.5 M42.7 503.1L382.8 608.6 M53.1 485.3L384.0 588.0 M42.7 488.8L53.1 485.3 M42.7 503.1L42.7 488.8 M248.8 432.5L383.6 474.4 M406.5 481.5L568.9 531.9 M259.1 414.8L384.8 453.8 M407.7 460.9L590.0 517.5 M248.8 418.3L259.1 414.8 M248.8 432.5L248.8 418.3 M74.3 490.9L244.9 432.6 M234.0 415.0L244.9 418.4 M51.3 477.5L234.0 415.0 M244.9 432.6L244.9 418.4 M407.9 608.4L599.8 542.8 M588.9 525.2L599.8 528.5 M407.7 587.2L588.9 525.2 M599.8 542.8L599.8 528.5 M40.8 543.8L51.1 540.3 M29.9 540.4L40.8 543.8 M29.9 540.4L29.9 501.6 M51.1 540.3L51.1 506.3 M395.7 654.0L406.1 650.4 M384.8 650.6L395.7 654.0 M384.8 650.6L384.8 611.8 M406.1 650.4L406.1 611.7 M601.7 583.5L612.1 579.9 M590.8 580.1L601.7 583.5 M590.8 580.1L590.8 546.2 M612.1 579.9L612.1 541.2 M246.8 473.3L257.2 469.7 M235.9 469.9L246.8 473.3 M235.9 469.9L235.9 436.0 M257.2 469.7L257.2 435.8 M40.8 485.6L51.1 482.1 M29.9 482.3L40.8 485.6 M29.9 482.3L29.9 122.3 M51.1 482.1L51.1 126.9 M395.7 595.8L406.1 592.3 M384.8 592.5L395.7 595.8 M384.8 592.5L384.8 232.5 M406.1 592.3L406.1 232.3 M601.7 525.3L612.1 521.8 M590.8 521.9L601.7 525.3 M590.8 521.9L590.8 166.8 M612.1 521.8L612.1 161.8 M246.8 415.1L257.2 411.6 M235.9 411.7L246.8 415.1 M235.9 411.7L235.9 183.5 M235.9 161.0L235.9 145.0 M235.9 120.9L235.9 116.0 M235.9 93.5L235.9 88.7 M235.9 66.2L235.9 59.8 M257.2 411.6L257.2 191.4 M257.2 143.2L257.2 136.8 M257.2 114.3L257.2 109.5 M257.2 87.0L257.2 80.5 M257.2 58.0L257.2 56.4 M40.9 126.9L47.1 124.8 M26.0 122.3L40.9 126.9 M40.1 98.1L55.0 102.7 M26.0 102.9L40.1 98.1 M26.0 122.3L26.0 102.9 M55.0 105.9L55.0 102.7 M395.8 237.1L409.9 232.3 M380.9 232.5L395.8 237.1 M395.1 208.3L409.9 212.9 M380.9 213.1L395.1 208.3 M380.9 232.5L380.9 213.1 M409.9 232.3L409.9 212.9 M601.8 166.6L616.0 161.8 M596.9 165.1L601.8 166.6 M601.1 137.8L616.0 142.4 M587.0 142.6L601.1 137.8 M587.0 145.8L587.0 142.6 M616.0 161.8L616.0 142.4 M246.9 56.4L251.6 54.8 M246.2 27.6L251.1 29.1 M232.0 32.4L246.2 27.6 M232.0 35.6L232.0 32.4 M42.7 123.7L382.8 229.3 M53.1 105.9L388.6 210.1 M42.7 109.5L53.1 105.9 M42.7 123.7L42.7 109.5 M253.4 54.6L261.0 57.0 M296.3 67.9L305.4 70.8 M339.1 81.2L346.8 83.6 M382.0 94.6L391.2 97.4 M424.9 107.9L432.6 110.3 M467.8 121.2L477.0 124.0 M510.7 134.5L518.4 136.9 M553.6 147.8L567.4 152.1 M277.5 41.1L291.3 45.4 M318.9 54.0L334.2 58.7 M363.3 67.8L377.1 72.0 M406.2 81.1L420.0 85.3 M449.1 94.4L462.9 98.7 M492.0 107.7L505.8 112.0 M534.9 121.0L548.7 125.3 M577.8 134.3L594.6 139.6 M234.0 35.6L238.7 37.1 M46.7 99.7L65.0 93.5 M78.7 88.8L234.0 35.6 M407.9 229.1L599.8 163.4 M588.9 145.8L599.8 149.2 M401.6 209.9L588.9 145.8 M599.8 163.4L599.8 149.2" stroke-width="1.35" opacity="0.55"/><path d="M67.5 96.2L78.4 99.6 M78.4 99.6L274.0 32.6 M78.4 113.8L78.4 99.6 M65.5 93.0L80.3 97.6 M80.3 97.6L92.6 93.4 M80.3 115.4L80.3 97.6 M274.3 49.5L276.0 50.0 M110.4 109.5L121.3 112.9 M121.3 112.9L316.9 45.9 M121.3 127.1L121.3 112.9 M108.4 106.3L123.3 110.9 M123.3 110.9L135.5 106.7 M123.3 128.7L123.3 110.9 M317.3 62.8L318.9 63.3 M153.3 122.8L164.2 126.2 M164.2 126.2L359.9 59.2 M164.2 140.4L164.2 126.2 M151.3 119.6L166.2 124.2 M166.2 124.2L178.4 120.0 M166.2 142.0L166.2 124.2 M360.2 76.1L361.8 76.7 M347.0 54.3L347.0 52.7 M196.2 136.2L207.1 139.5 M207.1 139.5L402.8 72.6 M207.1 153.8L207.1 139.5 M194.3 133.0L209.1 137.6 M209.1 137.6L221.4 133.4 M209.1 155.3L209.1 137.6 M403.1 89.5L404.8 90.0 M239.2 149.5L250.1 152.9 M250.1 152.9L445.7 85.9 M250.1 167.1L250.1 152.9 M237.2 146.3L252.0 150.9 M252.0 150.9L264.3 146.7 M252.0 168.7L252.0 150.9 M446.0 102.8L447.7 103.3 M432.8 80.9L432.8 79.3 M282.1 162.8L293.0 166.2 M293.0 166.2L488.6 99.2 M293.0 180.4L293.0 166.2 M280.1 159.6L295.0 164.2 M295.0 164.2L307.2 160.0 M295.0 182.0L295.0 164.2 M489.0 116.1L490.6 116.6 M325.0 176.1L335.9 179.5 M335.9 179.5L531.6 112.5 M335.9 193.7L335.9 179.5 M323.0 172.9L337.9 177.5 M337.9 177.5L350.1 173.3 M337.9 195.3L337.9 177.5 M531.9 129.4L533.5 130.0 M518.7 107.6L518.7 106.0 M367.9 189.5L378.8 192.8 M378.8 192.8L574.5 125.9 M378.8 207.1L378.8 192.8 M366.0 186.3L380.8 190.9 M380.8 190.9L393.1 186.7 M380.8 208.6L380.8 190.9 M574.8 142.8L576.5 143.3" stroke-width="1.50" opacity="0.85"/><path d="M78.4 113.8L274.0 46.8 M67.5 110.4L78.4 113.8 M67.5 96.2L69.0 95.7 M84.1 90.5L252.5 32.8 M67.5 110.4L67.5 96.2 M274.0 46.8L274.0 32.6 M84.9 115.4L92.6 112.8 M77.7 88.8L92.6 93.4 M65.5 93.0L77.7 88.8 M65.5 110.7L65.5 93.0 M92.6 112.8L92.6 93.4 M263.7 54.2L276.0 50.0 M258.8 52.7L263.7 54.2 M261.1 26.0L276.0 30.6 M248.9 30.2L261.1 26.0 M276.0 50.0L276.0 30.6 M248.9 33.4L248.9 30.2 M121.3 127.1L316.9 60.1 M110.4 123.7L121.3 127.1 M110.4 109.5L111.9 109.0 M127.1 103.8L295.4 46.2 M110.4 123.7L110.4 109.5 M316.9 60.1L316.9 45.9 M127.9 128.7L135.5 126.1 M120.7 102.1L135.5 106.7 M108.4 106.3L120.7 102.1 M108.4 124.1L108.4 106.3 M135.5 126.1L135.5 106.7 M306.7 67.5L318.9 63.3 M301.7 66.0L306.7 67.5 M304.1 39.3L318.9 43.9 M291.8 43.5L304.1 39.3 M318.9 63.3L318.9 43.9 M291.8 46.8L291.8 43.5 M164.2 140.4L359.9 73.5 M153.3 137.0L164.2 140.4 M153.3 122.8L154.8 122.3 M170.0 117.1L338.4 59.5 M153.3 137.0L153.3 122.8 M359.9 73.5L359.9 59.2 M170.8 142.1L178.4 139.4 M163.6 115.4L178.4 120.0 M151.3 119.6L163.6 115.4 M151.3 137.4L151.3 119.6 M178.4 139.4L178.4 120.0 M349.6 80.8L361.8 76.7 M344.6 79.3L349.6 80.8 M347.0 52.7L361.8 57.3 M334.7 56.8L347.0 52.7 M361.8 76.7L361.8 57.3 M334.7 60.1L334.7 56.8 M207.1 153.8L402.8 86.8 M196.2 150.4L207.1 153.8 M196.2 136.2L197.8 135.6 M212.9 130.4L381.3 72.8 M196.2 150.4L196.2 136.2 M402.8 86.8L402.8 72.6 M213.7 155.4L221.4 152.8 M206.5 128.8L221.4 133.4 M194.3 133.0L206.5 128.8 M194.3 150.7L194.3 133.0 M221.4 152.8L221.4 133.4 M392.5 94.2L404.8 90.0 M387.6 92.6L392.5 94.2 M389.9 66.0L404.8 70.6 M377.7 70.2L389.9 66.0 M404.8 90.0L404.8 70.6 M377.7 73.4L377.7 70.2 M250.1 167.1L445.7 100.1 M239.2 163.7L250.1 167.1 M239.2 149.5L240.7 149.0 M255.9 143.8L424.2 86.1 M239.2 163.7L239.2 149.5 M445.7 100.1L445.7 85.9 M256.6 168.7L264.3 166.1 M249.4 142.1L264.3 146.7 M237.2 146.3L249.4 142.1 M237.2 164.1L237.2 146.3 M264.3 166.1L264.3 146.7 M435.4 107.5L447.7 103.3 M430.5 106.0L435.4 107.5 M432.8 79.3L447.7 83.9 M420.6 83.5L432.8 79.3 M447.7 103.3L447.7 83.9 M420.6 86.7L420.6 83.5 M293.0 180.4L488.6 113.4 M282.1 177.0L293.0 180.4 M282.1 162.8L283.6 162.3 M298.8 157.1L467.1 99.5 M282.1 177.0L282.1 162.8 M488.6 113.4L488.6 99.2 M299.6 182.0L307.2 179.4 M292.4 155.4L307.2 160.0 M280.1 159.6L292.4 155.4 M280.1 177.4L280.1 159.6 M307.2 179.4L307.2 160.0 M478.4 120.8L490.6 116.6 M473.4 119.3L478.4 120.8 M475.8 92.6L490.6 97.2 M463.5 96.8L475.8 92.6 M490.6 116.6L490.6 97.2 M463.5 100.1L463.5 96.8 M335.9 193.7L531.6 126.8 M325.0 190.4L335.9 193.7 M325.0 176.1L326.5 175.6 M341.7 170.4L510.1 112.8 M325.0 190.4L325.0 176.1 M531.6 126.8L531.6 112.5 M342.5 195.4L350.1 192.7 M335.3 168.7L350.1 173.3 M323.0 172.9L335.3 168.7 M323.0 190.7L323.0 172.9 M350.1 192.7L350.1 173.3 M521.3 134.2L533.5 130.0 M516.3 132.6L521.3 134.2 M518.7 106.0L533.5 110.6 M506.4 110.2L518.7 106.0 M533.5 130.0L533.5 110.6 M506.4 113.4L506.4 110.2 M378.8 207.1L574.5 140.1 M367.9 203.7L378.8 207.1 M367.9 189.5L369.5 188.9 M384.6 183.7L553.0 126.1 M367.9 203.7L367.9 189.5 M574.5 140.1L574.5 125.9 M385.4 208.7L393.1 206.1 M378.2 182.1L393.1 186.7 M366.0 186.3L378.2 182.1 M366.0 204.0L366.0 186.3 M393.1 206.1L393.1 186.7 M564.2 147.5L576.5 143.3 M559.3 145.9L564.2 147.5 M561.6 119.3L576.5 123.9 M549.4 123.5L561.6 119.3 M576.5 143.3L576.5 123.9 M549.4 126.7L549.4 123.5" stroke-width="2.60" opacity="1.0"/></g></svg>