<svg class="draw" viewBox="0 0 680 290" xmlns="http://www.w3.org/2000/svg" role="img" aria-label="Corte longitudinal da vedacao"><style>
.corpo{fill:var(--sw-pp,#C3D0D4);fill-opacity:.5;stroke:var(--ink,#15191A);stroke-width:1}
.tampa{fill:var(--sw-teal,#17959F);fill-opacity:.4;stroke:var(--ink,#15191A);stroke-width:1}
.curs{fill:var(--sw-op,#B9C2C4);fill-opacity:.65;stroke:var(--ink,#15191A);stroke-width:1}
.trava{fill:var(--clay,#A8703C);fill-opacity:.5;stroke:var(--ink,#15191A);stroke-width:1}
.tpe{fill:var(--seal,#B23A22);fill-opacity:.85;stroke:var(--ink,#15191A);stroke-width:.9}
.ld{stroke:var(--faint,#8A9291);stroke-width:.8;fill:none}
.dot{fill:var(--teal,#0E7C86)}
.tx{font-family:"Martian Mono",ui-monospace,monospace;font-size:10px;fill:var(--ink,#15191A)}
.sb{font-family:"Karla",sans-serif;font-size:9.5px;fill:var(--faint,#8A9291)}
.cap{font-family:"Martian Mono",ui-monospace,monospace;font-size:9px;fill:var(--faint,#8A9291);
     letter-spacing:.08em;text-transform:uppercase}
</style><path class="corpo" d="M473.29 310.00 L475.70 218.00 L498.95 170.00 L499.84 136.00 L496.00 130.00 L456.00 130.00 L452.00 136.00 L447.29 310.00 Z"/><path class="tampa" d="M80.00 146.00 L80.00 194.00 L240.00 194.00 L240.00 130.00 L320.00 130.00 L422.00 130.00 L422.00 258.00 L430.00 266.00 L442.00 258.00 L446.00 238.00 L446.00 130.00 L462.00 130.00 L462.00 98.00 L490.00 98.00 L490.00 130.00 L507.00 130.00 L507.00 242.00 L539.00 242.00 L539.00 90.00 L531.00 78.00 L340.00 78.00 L340.00 98.00 L320.00 98.00 L240.00 98.00 L240.00 146.00 L156.00 146.00 L156.00 179.00 L128.00 179.00 L128.00 146.00 Z"/><path class="curs" d="M-320.00 146.00 L200.00 146.00 L200.00 116.00 L194.00 110.00 L-320.00 110.00 Z"/><path class="tpe" d="M470.00 138.00 L484.00 138.00 L491.00 131.00 L491.00 117.00 L484.00 110.00 L470.00 110.00 L463.00 117.00 L463.00 131.00 Z"/><path class="tpe" d="M136.00 166.00 L150.00 166.00 L157.00 159.00 L157.00 145.00 L150.00 138.00 L136.00 138.00 L129.00 145.00 L129.00 159.00 Z"/><path class="ld" d="M476.0 120.0 L240.0 18.0"/><circle class="dot" cx="476.0" cy="120.0" r="1.6"/><text class="tx" x="236.0" y="21.0" text-anchor="end">junta do aro 1,4 mm</text><text class="sb" x="236.0" y="31.0" text-anchor="end">aperto 0,4 mm (29%) em 590,4 mm</text><path class="ld" d="M460.0 130.0 L80.0 90.0"/><circle class="dot" cx="460.0" cy="130.0" r="1.6"/><text class="tx" x="84.0" y="93.0" text-anchor="start">batente</text><text class="sb" x="84.0" y="103.0" text-anchor="start">topo do aro na mesa — o aperto e geometria</text><path class="ld" d="M142.0 142.0 L20.0 210.0"/><circle class="dot" cx="142.0" cy="142.0" r="1.6"/><text class="tx" x="24.0" y="213.0" text-anchor="start">junta da boca</text><text class="sb" x="24.0" y="223.0" text-anchor="start">o cursor desce 0,55 e comprime</text><path class="ld" d="M140.0 110.0 L360.0 160.0"/><circle class="dot" cx="140.0" cy="110.0" r="1.6"/><text class="tx" x="364.0" y="163.0" text-anchor="start">cursor 1,8 mm</text><text class="sb" x="364.0" y="173.0" text-anchor="start">corre 56 mm</text><text class="cap" x="4" y="286.0">A-A · corte longitudinal a 18 mm do eixo</text></svg>