ISO-10303-21;
HEADER;
FILE_DESCRIPTION(('Open CASCADE Model'),'2;1');
FILE_NAME('Open CASCADE Shape Model','2026-09-29T12:02:35',('Author'),(
    'Open CASCADE'),'Open CASCADE STEP processor 7.9','Open CASCADE 7.9'
  ,'Unknown');
FILE_SCHEMA(('AUTOMOTIVE_DESIGN { 1 0 10303 214 1 1 1 1 }'));
ENDSEC;
DATA;
#1 = APPLICATION_PROTOCOL_DEFINITION('international standard',
  'automotive_design',2000,#2);
#2 = APPLICATION_CONTEXT(
  'core data for automotive mechanical design processes');
#3 = SHAPE_DEFINITION_REPRESENTATION(#4,#10);
#4 = PRODUCT_DEFINITION_SHAPE('','',#5);
#5 = PRODUCT_DEFINITION('design','',#6,#9);
#6 = PRODUCT_DEFINITION_FORMATION('','',#7);
#7 = PRODUCT('Open CASCADE STEP translator 7.9 2',
  'Open CASCADE STEP translator 7.9 2','',(#8));
#8 = PRODUCT_CONTEXT('',#2,'mechanical');
#9 = PRODUCT_DEFINITION_CONTEXT('part definition',#2,'design');
#10 = ADVANCED_BREP_SHAPE_REPRESENTATION('',(#11,#15),#548);
#11 = AXIS2_PLACEMENT_3D('',#12,#13,#14);
#12 = CARTESIAN_POINT('',(0.,0.,0.));
#13 = DIRECTION('',(0.,0.,1.));
#14 = DIRECTION('',(1.,0.,-0.));
#15 = MANIFOLD_SOLID_BREP('',#16);
#16 = CLOSED_SHELL('',(#17,#265,#319,#323,#327,#381,#436,#491,#541));
#17 = ADVANCED_FACE('',(#18,#54,#144,#234),#31,.F.);
#18 = FACE_BOUND('',#19,.T.);
#19 = EDGE_LOOP('',(#20));
#20 = ORIENTED_EDGE('',*,*,#21,.F.);
#21 = EDGE_CURVE('',#22,#22,#24,.T.);
#22 = VERTEX_POINT('',#23);
#23 = CARTESIAN_POINT('',(75.40816491642,36.63,102.68));
#24 = SURFACE_CURVE('',#25,(#30,#42),.PCURVE_S1.);
#25 = CIRCLE('',#26,13.43816491642);
#26 = AXIS2_PLACEMENT_3D('',#27,#28,#29);
#27 = CARTESIAN_POINT('',(61.97,36.63,102.68));
#28 = DIRECTION('',(-0.,1.,0.));
#29 = DIRECTION('',(1.,0.,6.123233995737E-17));
#30 = PCURVE('',#31,#36);
#31 = PLANE('',#32);
#32 = AXIS2_PLACEMENT_3D('',#33,#34,#35);
#33 = CARTESIAN_POINT('',(61.97,36.63,102.68));
#34 = DIRECTION('',(0.,1.,0.));
#35 = DIRECTION('',(1.,0.,0.));
#36 = DEFINITIONAL_REPRESENTATION('',(#37),#41);
#37 = CIRCLE('',#38,13.43816491642);
#38 = AXIS2_PLACEMENT_2D('',#39,#40);
#39 = CARTESIAN_POINT('',(0.,0.));
#40 = DIRECTION('',(1.,-6.123233995737E-17));
#41 = ( GEOMETRIC_REPRESENTATION_CONTEXT(2) 
PARAMETRIC_REPRESENTATION_CONTEXT() REPRESENTATION_CONTEXT('2D SPACE',''
  ) );
#42 = PCURVE('',#43,#48);
#43 = TOROIDAL_SURFACE('',#44,13.43816491642,0.15);
#44 = AXIS2_PLACEMENT_3D('',#45,#46,#47);
#45 = CARTESIAN_POINT('',(61.97,36.78,102.68));
#46 = DIRECTION('',(-0.,1.,-0.));
#47 = DIRECTION('',(1.,0.,6.123233995737E-17));
#48 = DEFINITIONAL_REPRESENTATION('',(#49),#53);
#49 = LINE('',#50,#51);
#50 = CARTESIAN_POINT('',(0.,4.712388980385));
#51 = VECTOR('',#52,1.);
#52 = DIRECTION('',(1.,0.));
#53 = ( GEOMETRIC_REPRESENTATION_CONTEXT(2) 
PARAMETRIC_REPRESENTATION_CONTEXT() REPRESENTATION_CONTEXT('2D SPACE',''
  ) );
#54 = FACE_BOUND('',#55,.T.);
#55 = EDGE_LOOP('',(#56));
#56 = ORIENTED_EDGE('',*,*,#57,.F.);
#57 = EDGE_CURVE('',#58,#58,#60,.T.);
#58 = VERTEX_POINT('',#59);
#59 = CARTESIAN_POINT('',(51.87,36.63,101.68));
#60 = SURFACE_CURVE('',#61,(#66,#77),.PCURVE_S1.);
#61 = CIRCLE('',#62,1.);
#62 = AXIS2_PLACEMENT_3D('',#63,#64,#65);
#63 = CARTESIAN_POINT('',(51.87,36.63,102.68));
#64 = DIRECTION('',(0.,-1.,-0.));
#65 = DIRECTION('',(0.,0.,-1.));
#66 = PCURVE('',#31,#67);
#67 = DEFINITIONAL_REPRESENTATION('',(#68),#76);
#68 = ( BOUNDED_CURVE() B_SPLINE_CURVE(2,(#69,#70,#71,#72,#73,#74,#75),
.UNSPECIFIED.,.T.,.F.) B_SPLINE_CURVE_WITH_KNOTS((1,2,2,2,2,1),(
    -2.094395102393,0.,2.094395102393,4.188790204786,6.28318530718,
8.377580409573),.UNSPECIFIED.) CURVE() GEOMETRIC_REPRESENTATION_ITEM() 
RATIONAL_B_SPLINE_CURVE((1.,0.5,1.,0.5,1.,0.5,1.)) REPRESENTATION_ITEM(
  '') );
#69 = CARTESIAN_POINT('',(-10.1,1.));
#70 = CARTESIAN_POINT('',(-8.367949192431,1.));
#71 = CARTESIAN_POINT('',(-9.233974596216,-0.5));
#72 = CARTESIAN_POINT('',(-10.1,-2.));
#73 = CARTESIAN_POINT('',(-10.96602540378,-0.5));
#74 = CARTESIAN_POINT('',(-11.83205080756,1.));
#75 = CARTESIAN_POINT('',(-10.1,1.));
#76 = ( GEOMETRIC_REPRESENTATION_CONTEXT(2) 
PARAMETRIC_REPRESENTATION_CONTEXT() REPRESENTATION_CONTEXT('2D SPACE',''
  ) );
#77 = PCURVE('',#78,#83);
#78 = SPHERICAL_SURFACE('',#79,2.125);
#79 = AXIS2_PLACEMENT_3D('',#80,#81,#82);
#80 = CARTESIAN_POINT('',(51.87,34.755,102.68));
#81 = DIRECTION('',(0.,0.,1.));
#82 = DIRECTION('',(1.,0.,-0.));
#83 = DEFINITIONAL_REPRESENTATION('',(#84),#143);
#84 = B_SPLINE_CURVE_WITH_KNOTS('',8,(#85,#86,#87,#88,#89,#90,#91,#92,
    #93,#94,#95,#96,#97,#98,#99,#100,#101,#102,#103,#104,#105,#106,#107,
    #108,#109,#110,#111,#112,#113,#114,#115,#116,#117,#118,#119,#120,
    #121,#122,#123,#124,#125,#126,#127,#128,#129,#130,#131,#132,#133,
    #134,#135,#136,#137,#138,#139,#140,#141,#142),.UNSPECIFIED.,.F.,.F.,
  (9,7,7,7,7,7,7,7,9),(0.,0.785398163397,2.159844949343,2.675262494073,
    3.577243197349,4.253728724807,5.268457015993,5.775821161586,
    6.28318530718),.UNSPECIFIED.);
#85 = CARTESIAN_POINT('',(1.570796326795,-0.489957326254));
#86 = CARTESIAN_POINT('',(1.518436449235,-0.489957326254));
#87 = CARTESIAN_POINT('',(1.46607667229,-0.484082513667));
#88 = CARTESIAN_POINT('',(1.414922620675,-0.472333337601));
#89 = CARTESIAN_POINT('',(1.366184075578,-0.454931649311));
#90 = CARTESIAN_POINT('',(1.320855655051,-0.432331311312));
#91 = CARTESIAN_POINT('',(1.279535610053,-0.405106749929));
#92 = CARTESIAN_POINT('',(1.242579185962,-0.373867189445));
#93 = CARTESIAN_POINT('',(1.153440605612,-0.278600512695));
#94 = CARTESIAN_POINT('',(1.110626277988,-0.207554542586));
#95 = CARTESIAN_POINT('',(1.082698758202,-0.129368573621));
#96 = CARTESIAN_POINT('',(1.068963049697,-4.73257149922E-02));
#97 = CARTESIAN_POINT('',(1.068906412347,3.586829861941E-02));
#98 = CARTESIAN_POINT('',(1.082655923488,0.117589359395));
#99 = CARTESIAN_POINT('',(1.110861193254,0.194872200856));
#100 = CARTESIAN_POINT('',(1.169355258579,0.290636246481));
#101 = CARTESIAN_POINT('',(1.187324270297,0.315679924977));
#102 = CARTESIAN_POINT('',(1.207302087038,0.339481375636));
#103 = CARTESIAN_POINT('',(1.229268120571,0.361868032427));
#104 = CARTESIAN_POINT('',(1.253175095356,0.382664413721));
#105 = CARTESIAN_POINT('',(1.278937802192,0.40169626713));
#106 = CARTESIAN_POINT('',(1.306423984392,0.418797648128));
#107 = CARTESIAN_POINT('',(1.386238257619,0.460111679917));
#108 = CARTESIAN_POINT('',(1.441738053784,0.480038272959));
#109 = CARTESIAN_POINT('',(1.500947532961,0.492808442619));
#110 = CARTESIAN_POINT('',(1.562415910554,0.497803011838));
#111 = CARTESIAN_POINT('',(1.624101110123,0.494706881841));
#112 = CARTESIAN_POINT('',(1.683902305598,0.483757219714));
#113 = CARTESIAN_POINT('',(1.740287249756,0.46552345257));
#114 = CARTESIAN_POINT('',(1.831089692671,0.422199638276));
#115 = CARTESIAN_POINT('',(1.867475485862,0.399963312961));
#116 = CARTESIAN_POINT('',(1.900877401337,0.374378738718));
#117 = CARTESIAN_POINT('',(1.930996311124,0.345828207882));
#118 = CARTESIAN_POINT('',(1.957683651585,0.314714390985));
#119 = CARTESIAN_POINT('',(1.980890347969,0.281434716579));
#120 = CARTESIAN_POINT('',(2.000610579577,0.246370412825));
#121 = CARTESIAN_POINT('',(2.041238269789,0.155167645983));
#122 = CARTESIAN_POINT('',(2.057808735713,9.725809461353E-02));
#123 = CARTESIAN_POINT('',(2.066630979939,3.74011866383E-02));
#124 = CARTESIAN_POINT('',(2.067857541219,-2.323588998133E-02));
#125 = CARTESIAN_POINT('',(2.061538363153,-8.355477063385E-02));
#126 = CARTESIAN_POINT('',(2.047563002583,-0.142441597726));
#127 = CARTESIAN_POINT('',(2.025754293726,-0.198691253648));
#128 = CARTESIAN_POINT('',(1.98131111514,-0.277197101161));
#129 = CARTESIAN_POINT('',(1.964541632918,-0.302387636179));
#130 = CARTESIAN_POINT('',(1.94581954092,-0.326440715037));
#131 = CARTESIAN_POINT('',(1.925157904419,-0.349192882441));
#132 = CARTESIAN_POINT('',(1.902591693665,-0.370477177746));
#133 = CARTESIAN_POINT('',(1.878188063515,-0.390126396665));
#134 = CARTESIAN_POINT('',(1.852055593386,-0.407979040082));
#135 = CARTESIAN_POINT('',(1.796649381718,-0.439796859868));
#136 = CARTESIAN_POINT('',(1.767375554332,-0.45376191602));
#137 = CARTESIAN_POINT('',(1.736688168438,-0.465636504826));
#138 = CARTESIAN_POINT('',(1.704792258191,-0.475286649257));
#139 = CARTESIAN_POINT('',(1.671944245761,-0.482602320396));
#140 = CARTESIAN_POINT('',(1.638444738044,-0.487505833165));
#141 = CARTESIAN_POINT('',(1.604620603168,-0.489957326254));
#142 = CARTESIAN_POINT('',(1.570796326795,-0.489957326254));
#143 = ( GEOMETRIC_REPRESENTATION_CONTEXT(2) 
PARAMETRIC_REPRESENTATION_CONTEXT() REPRESENTATION_CONTEXT('2D SPACE',''
  ) );
#144 = FACE_BOUND('',#145,.T.);
#145 = EDGE_LOOP('',(#146));
#146 = ORIENTED_EDGE('',*,*,#147,.F.);
#147 = EDGE_CURVE('',#148,#148,#150,.T.);
#148 = VERTEX_POINT('',#149);
#149 = CARTESIAN_POINT('',(72.07,36.63,101.68));
#150 = SURFACE_CURVE('',#151,(#156,#167),.PCURVE_S1.);
#151 = CIRCLE('',#152,1.);
#152 = AXIS2_PLACEMENT_3D('',#153,#154,#155);
#153 = CARTESIAN_POINT('',(72.07,36.63,102.68));
#154 = DIRECTION('',(0.,-1.,-0.));
#155 = DIRECTION('',(0.,0.,-1.));
#156 = PCURVE('',#31,#157);
#157 = DEFINITIONAL_REPRESENTATION('',(#158),#166);
#158 = ( BOUNDED_CURVE() B_SPLINE_CURVE(2,(#159,#160,#161,#162,#163,#164
,#165),.UNSPECIFIED.,.T.,.F.) B_SPLINE_CURVE_WITH_KNOTS((1,2,2,2,2,1),(
    -2.094395102393,0.,2.094395102393,4.188790204786,6.28318530718,
8.377580409573),.UNSPECIFIED.) CURVE() GEOMETRIC_REPRESENTATION_ITEM() 
RATIONAL_B_SPLINE_CURVE((1.,0.5,1.,0.5,1.,0.5,1.)) REPRESENTATION_ITEM(
  '') );
#159 = CARTESIAN_POINT('',(10.1,1.));
#160 = CARTESIAN_POINT('',(11.832050807569,1.));
#161 = CARTESIAN_POINT('',(10.966025403784,-0.5));
#162 = CARTESIAN_POINT('',(10.1,-2.));
#163 = CARTESIAN_POINT('',(9.233974596216,-0.5));
#164 = CARTESIAN_POINT('',(8.367949192431,1.));
#165 = CARTESIAN_POINT('',(10.1,1.));
#166 = ( GEOMETRIC_REPRESENTATION_CONTEXT(2) 
PARAMETRIC_REPRESENTATION_CONTEXT() REPRESENTATION_CONTEXT('2D SPACE',''
  ) );
#167 = PCURVE('',#168,#173);
#168 = SPHERICAL_SURFACE('',#169,2.125);
#169 = AXIS2_PLACEMENT_3D('',#170,#171,#172);
#170 = CARTESIAN_POINT('',(72.07,34.755,102.68));
#171 = DIRECTION('',(0.,0.,1.));
#172 = DIRECTION('',(1.,0.,-0.));
#173 = DEFINITIONAL_REPRESENTATION('',(#174),#233);
#174 = B_SPLINE_CURVE_WITH_KNOTS('',8,(#175,#176,#177,#178,#179,#180,
    #181,#182,#183,#184,#185,#186,#187,#188,#189,#190,#191,#192,#193,
    #194,#195,#196,#197,#198,#199,#200,#201,#202,#203,#204,#205,#206,
    #207,#208,#209,#210,#211,#212,#213,#214,#215,#216,#217,#218,#219,
    #220,#221,#222,#223,#224,#225,#226,#227,#228,#229,#230,#231,#232),
  .UNSPECIFIED.,.F.,.F.,(9,7,7,7,7,7,7,7,9),(0.,0.785398163397,
    2.159844949343,2.675262494073,3.577243197349,4.253728724807,
    5.268457015993,5.775821161586,6.28318530718),.UNSPECIFIED.);
#175 = CARTESIAN_POINT('',(1.570796326795,-0.489957326254));
#176 = CARTESIAN_POINT('',(1.518436449235,-0.489957326254));
#177 = CARTESIAN_POINT('',(1.46607667229,-0.484082513667));
#178 = CARTESIAN_POINT('',(1.414922620675,-0.472333337601));
#179 = CARTESIAN_POINT('',(1.366184075578,-0.454931649311));
#180 = CARTESIAN_POINT('',(1.320855655051,-0.432331311312));
#181 = CARTESIAN_POINT('',(1.279535610053,-0.405106749929));
#182 = CARTESIAN_POINT('',(1.242579185962,-0.373867189445));
#183 = CARTESIAN_POINT('',(1.153440605612,-0.278600512695));
#184 = CARTESIAN_POINT('',(1.110626277988,-0.207554542586));
#185 = CARTESIAN_POINT('',(1.082698758202,-0.129368573621));
#186 = CARTESIAN_POINT('',(1.068963049697,-4.73257149922E-02));
#187 = CARTESIAN_POINT('',(1.068906412347,3.586829861941E-02));
#188 = CARTESIAN_POINT('',(1.082655923488,0.117589359395));
#189 = CARTESIAN_POINT('',(1.110861193254,0.194872200856));
#190 = CARTESIAN_POINT('',(1.169355258579,0.290636246481));
#191 = CARTESIAN_POINT('',(1.187324270297,0.315679924977));
#192 = CARTESIAN_POINT('',(1.207302087038,0.339481375636));
#193 = CARTESIAN_POINT('',(1.229268120571,0.361868032427));
#194 = CARTESIAN_POINT('',(1.253175095356,0.382664413721));
#195 = CARTESIAN_POINT('',(1.278937802192,0.40169626713));
#196 = CARTESIAN_POINT('',(1.306423984392,0.418797648128));
#197 = CARTESIAN_POINT('',(1.386238257619,0.460111679917));
#198 = CARTESIAN_POINT('',(1.441738053784,0.480038272959));
#199 = CARTESIAN_POINT('',(1.500947532961,0.492808442619));
#200 = CARTESIAN_POINT('',(1.562415910554,0.497803011838));
#201 = CARTESIAN_POINT('',(1.624101110123,0.494706881841));
#202 = CARTESIAN_POINT('',(1.683902305598,0.483757219714));
#203 = CARTESIAN_POINT('',(1.740287249756,0.46552345257));
#204 = CARTESIAN_POINT('',(1.831089692671,0.422199638276));
#205 = CARTESIAN_POINT('',(1.867475485862,0.399963312961));
#206 = CARTESIAN_POINT('',(1.900877401337,0.374378738718));
#207 = CARTESIAN_POINT('',(1.930996311124,0.345828207882));
#208 = CARTESIAN_POINT('',(1.957683651585,0.314714390985));
#209 = CARTESIAN_POINT('',(1.980890347969,0.281434716579));
#210 = CARTESIAN_POINT('',(2.000610579577,0.246370412825));
#211 = CARTESIAN_POINT('',(2.041238269789,0.155167645983));
#212 = CARTESIAN_POINT('',(2.057808735713,9.725809461353E-02));
#213 = CARTESIAN_POINT('',(2.066630979939,3.74011866383E-02));
#214 = CARTESIAN_POINT('',(2.067857541219,-2.323588998133E-02));
#215 = CARTESIAN_POINT('',(2.061538363153,-8.355477063385E-02));
#216 = CARTESIAN_POINT('',(2.047563002583,-0.142441597726));
#217 = CARTESIAN_POINT('',(2.025754293726,-0.198691253648));
#218 = CARTESIAN_POINT('',(1.98131111514,-0.277197101161));
#219 = CARTESIAN_POINT('',(1.964541632918,-0.302387636179));
#220 = CARTESIAN_POINT('',(1.94581954092,-0.326440715037));
#221 = CARTESIAN_POINT('',(1.925157904419,-0.349192882441));
#222 = CARTESIAN_POINT('',(1.902591693665,-0.370477177746));
#223 = CARTESIAN_POINT('',(1.878188063515,-0.390126396665));
#224 = CARTESIAN_POINT('',(1.852055593386,-0.407979040082));
#225 = CARTESIAN_POINT('',(1.796649381718,-0.439796859868));
#226 = CARTESIAN_POINT('',(1.767375554332,-0.45376191602));
#227 = CARTESIAN_POINT('',(1.736688168438,-0.465636504826));
#228 = CARTESIAN_POINT('',(1.704792258191,-0.475286649257));
#229 = CARTESIAN_POINT('',(1.671944245761,-0.482602320396));
#230 = CARTESIAN_POINT('',(1.638444738044,-0.487505833165));
#231 = CARTESIAN_POINT('',(1.604620603168,-0.489957326254));
#232 = CARTESIAN_POINT('',(1.570796326795,-0.489957326254));
#233 = ( GEOMETRIC_REPRESENTATION_CONTEXT(2) 
PARAMETRIC_REPRESENTATION_CONTEXT() REPRESENTATION_CONTEXT('2D SPACE',''
  ) );
#234 = FACE_BOUND('',#235,.T.);
#235 = EDGE_LOOP('',(#236));
#236 = ORIENTED_EDGE('',*,*,#237,.T.);
#237 = EDGE_CURVE('',#238,#238,#240,.T.);
#238 = VERTEX_POINT('',#239);
#239 = CARTESIAN_POINT('',(67.12,36.63,102.68));
#240 = SURFACE_CURVE('',#241,(#246,#253),.PCURVE_S1.);
#241 = CIRCLE('',#242,5.15);
#242 = AXIS2_PLACEMENT_3D('',#243,#244,#245);
#243 = CARTESIAN_POINT('',(61.97,36.63,102.68));
#244 = DIRECTION('',(-0.,1.,0.));
#245 = DIRECTION('',(1.,0.,0.));
#246 = PCURVE('',#31,#247);
#247 = DEFINITIONAL_REPRESENTATION('',(#248),#252);
#248 = CIRCLE('',#249,5.15);
#249 = AXIS2_PLACEMENT_2D('',#250,#251);
#250 = CARTESIAN_POINT('',(0.,0.));
#251 = DIRECTION('',(1.,-0.));
#252 = ( GEOMETRIC_REPRESENTATION_CONTEXT(2) 
PARAMETRIC_REPRESENTATION_CONTEXT() REPRESENTATION_CONTEXT('2D SPACE',''
  ) );
#253 = PCURVE('',#254,#259);
#254 = TOROIDAL_SURFACE('',#255,5.15,0.15);
#255 = AXIS2_PLACEMENT_3D('',#256,#257,#258);
#256 = CARTESIAN_POINT('',(61.97,36.78,102.68));
#257 = DIRECTION('',(0.,-1.,0.));
#258 = DIRECTION('',(1.,0.,0.));
#259 = DEFINITIONAL_REPRESENTATION('',(#260),#264);
#260 = LINE('',#261,#262);
#261 = CARTESIAN_POINT('',(-0.,1.570796326795));
#262 = VECTOR('',#263,1.);
#263 = DIRECTION('',(-1.,0.));
#264 = ( GEOMETRIC_REPRESENTATION_CONTEXT(2) 
PARAMETRIC_REPRESENTATION_CONTEXT() REPRESENTATION_CONTEXT('2D SPACE',''
  ) );
#265 = ADVANCED_FACE('',(#266),#43,.T.);
#266 = FACE_BOUND('',#267,.T.);
#267 = EDGE_LOOP('',(#268,#290,#291,#292));
#268 = ORIENTED_EDGE('',*,*,#269,.F.);
#269 = EDGE_CURVE('',#22,#270,#272,.T.);
#270 = VERTEX_POINT('',#271);
#271 = CARTESIAN_POINT('',(75.558113515167,36.776073457754,102.68));
#272 = SEAM_CURVE('',#273,(#278,#284),.PCURVE_S1.);
#273 = CIRCLE('',#274,0.15);
#274 = AXIS2_PLACEMENT_3D('',#275,#276,#277);
#275 = CARTESIAN_POINT('',(75.40816491642,36.78,102.68));
#276 = DIRECTION('',(-6.123233995737E-17,0.,1.));
#277 = DIRECTION('',(1.,0.,6.123233995737E-17));
#278 = PCURVE('',#43,#279);
#279 = DEFINITIONAL_REPRESENTATION('',(#280),#283);
#280 = B_SPLINE_CURVE_WITH_KNOTS('',1,(#281,#282),.UNSPECIFIED.,.F.,.F.,
  (2,2),(4.712388980385,6.2570053684),.PIECEWISE_BEZIER_KNOTS.);
#281 = CARTESIAN_POINT('',(0.,4.712388980385));
#282 = CARTESIAN_POINT('',(0.,6.2570053684));
#283 = ( GEOMETRIC_REPRESENTATION_CONTEXT(2) 
PARAMETRIC_REPRESENTATION_CONTEXT() REPRESENTATION_CONTEXT('2D SPACE',''
  ) );
#284 = PCURVE('',#43,#285);
#285 = DEFINITIONAL_REPRESENTATION('',(#286),#289);
#286 = B_SPLINE_CURVE_WITH_KNOTS('',1,(#287,#288),.UNSPECIFIED.,.F.,.F.,
  (2,2),(4.712388980385,6.2570053684),.PIECEWISE_BEZIER_KNOTS.);
#287 = CARTESIAN_POINT('',(6.28318530718,4.712388980385));
#288 = CARTESIAN_POINT('',(6.28318530718,6.2570053684));
#289 = ( GEOMETRIC_REPRESENTATION_CONTEXT(2) 
PARAMETRIC_REPRESENTATION_CONTEXT() REPRESENTATION_CONTEXT('2D SPACE',''
  ) );
#290 = ORIENTED_EDGE('',*,*,#21,.T.);
#291 = ORIENTED_EDGE('',*,*,#269,.T.);
#292 = ORIENTED_EDGE('',*,*,#293,.F.);
#293 = EDGE_CURVE('',#270,#270,#294,.T.);
#294 = SURFACE_CURVE('',#295,(#300,#307),.PCURVE_S1.);
#295 = CIRCLE('',#296,13.588113515167);
#296 = AXIS2_PLACEMENT_3D('',#297,#298,#299);
#297 = CARTESIAN_POINT('',(61.97,36.776073457754,102.68));
#298 = DIRECTION('',(-0.,1.,0.));
#299 = DIRECTION('',(1.,0.,6.123233995737E-17));
#300 = PCURVE('',#43,#301);
#301 = DEFINITIONAL_REPRESENTATION('',(#302),#306);
#302 = LINE('',#303,#304);
#303 = CARTESIAN_POINT('',(0.,6.2570053684));
#304 = VECTOR('',#305,1.);
#305 = DIRECTION('',(1.,0.));
#306 = ( GEOMETRIC_REPRESENTATION_CONTEXT(2) 
PARAMETRIC_REPRESENTATION_CONTEXT() REPRESENTATION_CONTEXT('2D SPACE',''
  ) );
#307 = PCURVE('',#308,#313);
#308 = CONICAL_SURFACE('',#309,13.584288447058,2.617993877992E-02);
#309 = AXIS2_PLACEMENT_3D('',#310,#311,#312);
#310 = CARTESIAN_POINT('',(61.97,36.63,102.68));
#311 = DIRECTION('',(0.,1.,0.));
#312 = DIRECTION('',(1.,0.,0.));
#313 = DEFINITIONAL_REPRESENTATION('',(#314),#318);
#314 = LINE('',#315,#316);
#315 = CARTESIAN_POINT('',(0.,0.146073457754));
#316 = VECTOR('',#317,1.);
#317 = DIRECTION('',(1.,0.));
#318 = ( GEOMETRIC_REPRESENTATION_CONTEXT(2) 
PARAMETRIC_REPRESENTATION_CONTEXT() REPRESENTATION_CONTEXT('2D SPACE',''
  ) );
#319 = ADVANCED_FACE('',(#320),#78,.F.);
#320 = FACE_BOUND('',#321,.F.);
#321 = EDGE_LOOP('',(#322));
#322 = ORIENTED_EDGE('',*,*,#57,.F.);
#323 = ADVANCED_FACE('',(#324),#168,.F.);
#324 = FACE_BOUND('',#325,.F.);
#325 = EDGE_LOOP('',(#326));
#326 = ORIENTED_EDGE('',*,*,#147,.F.);
#327 = ADVANCED_FACE('',(#328),#254,.T.);
#328 = FACE_BOUND('',#329,.F.);
#329 = EDGE_LOOP('',(#330,#352,#353,#354));
#330 = ORIENTED_EDGE('',*,*,#331,.F.);
#331 = EDGE_CURVE('',#238,#332,#334,.T.);
#332 = VERTEX_POINT('',#333);
#333 = CARTESIAN_POINT('',(66.97,36.78,102.68));
#334 = SEAM_CURVE('',#335,(#340,#346),.PCURVE_S1.);
#335 = CIRCLE('',#336,0.15);
#336 = AXIS2_PLACEMENT_3D('',#337,#338,#339);
#337 = CARTESIAN_POINT('',(67.12,36.78,102.68));
#338 = DIRECTION('',(0.,0.,-1.));
#339 = DIRECTION('',(1.,0.,0.));
#340 = PCURVE('',#254,#341);
#341 = DEFINITIONAL_REPRESENTATION('',(#342),#345);
#342 = B_SPLINE_CURVE_WITH_KNOTS('',1,(#343,#344),.UNSPECIFIED.,.F.,.F.,
  (2,2),(1.570796326795,3.14159265359),.PIECEWISE_BEZIER_KNOTS.);
#343 = CARTESIAN_POINT('',(0.,1.570796326795));
#344 = CARTESIAN_POINT('',(0.,3.14159265359));
#345 = ( GEOMETRIC_REPRESENTATION_CONTEXT(2) 
PARAMETRIC_REPRESENTATION_CONTEXT() REPRESENTATION_CONTEXT('2D SPACE',''
  ) );
#346 = PCURVE('',#254,#347);
#347 = DEFINITIONAL_REPRESENTATION('',(#348),#351);
#348 = B_SPLINE_CURVE_WITH_KNOTS('',1,(#349,#350),.UNSPECIFIED.,.F.,.F.,
  (2,2),(1.570796326795,3.14159265359),.PIECEWISE_BEZIER_KNOTS.);
#349 = CARTESIAN_POINT('',(-6.28318530718,1.570796326795));
#350 = CARTESIAN_POINT('',(-6.28318530718,3.14159265359));
#351 = ( GEOMETRIC_REPRESENTATION_CONTEXT(2) 
PARAMETRIC_REPRESENTATION_CONTEXT() REPRESENTATION_CONTEXT('2D SPACE',''
  ) );
#352 = ORIENTED_EDGE('',*,*,#237,.F.);
#353 = ORIENTED_EDGE('',*,*,#331,.T.);
#354 = ORIENTED_EDGE('',*,*,#355,.T.);
#355 = EDGE_CURVE('',#332,#332,#356,.T.);
#356 = SURFACE_CURVE('',#357,(#362,#369),.PCURVE_S1.);
#357 = CIRCLE('',#358,5.);
#358 = AXIS2_PLACEMENT_3D('',#359,#360,#361);
#359 = CARTESIAN_POINT('',(61.97,36.78,102.68));
#360 = DIRECTION('',(-0.,1.,0.));
#361 = DIRECTION('',(1.,0.,0.));
#362 = PCURVE('',#254,#363);
#363 = DEFINITIONAL_REPRESENTATION('',(#364),#368);
#364 = LINE('',#365,#366);
#365 = CARTESIAN_POINT('',(-0.,3.14159265359));
#366 = VECTOR('',#367,1.);
#367 = DIRECTION('',(-1.,0.));
#368 = ( GEOMETRIC_REPRESENTATION_CONTEXT(2) 
PARAMETRIC_REPRESENTATION_CONTEXT() REPRESENTATION_CONTEXT('2D SPACE',''
  ) );
#369 = PCURVE('',#370,#375);
#370 = CYLINDRICAL_SURFACE('',#371,5.);
#371 = AXIS2_PLACEMENT_3D('',#372,#373,#374);
#372 = CARTESIAN_POINT('',(61.97,37.73,102.68));
#373 = DIRECTION('',(-0.,-1.,-0.));
#374 = DIRECTION('',(1.,-0.,0.));
#375 = DEFINITIONAL_REPRESENTATION('',(#376),#380);
#376 = LINE('',#377,#378);
#377 = CARTESIAN_POINT('',(-0.,0.95));
#378 = VECTOR('',#379,1.);
#379 = DIRECTION('',(-1.,0.));
#380 = ( GEOMETRIC_REPRESENTATION_CONTEXT(2) 
PARAMETRIC_REPRESENTATION_CONTEXT() REPRESENTATION_CONTEXT('2D SPACE',''
  ) );
#381 = ADVANCED_FACE('',(#382),#308,.T.);
#382 = FACE_BOUND('',#383,.T.);
#383 = EDGE_LOOP('',(#384,#407,#408,#409));
#384 = ORIENTED_EDGE('',*,*,#385,.F.);
#385 = EDGE_CURVE('',#270,#386,#388,.T.);
#386 = VERTEX_POINT('',#387);
#387 = CARTESIAN_POINT('',(75.57,37.23,102.68));
#388 = SEAM_CURVE('',#389,(#393,#400),.PCURVE_S1.);
#389 = LINE('',#390,#391);
#390 = CARTESIAN_POINT('',(75.554288447058,36.63,102.68));
#391 = VECTOR('',#392,1.);
#392 = DIRECTION('',(2.617694830787E-02,0.999657324976,0.));
#393 = PCURVE('',#308,#394);
#394 = DEFINITIONAL_REPRESENTATION('',(#395),#399);
#395 = LINE('',#396,#397);
#396 = CARTESIAN_POINT('',(0.,0.));
#397 = VECTOR('',#398,1.);
#398 = DIRECTION('',(0.,1.));
#399 = ( GEOMETRIC_REPRESENTATION_CONTEXT(2) 
PARAMETRIC_REPRESENTATION_CONTEXT() REPRESENTATION_CONTEXT('2D SPACE',''
  ) );
#400 = PCURVE('',#308,#401);
#401 = DEFINITIONAL_REPRESENTATION('',(#402),#406);
#402 = LINE('',#403,#404);
#403 = CARTESIAN_POINT('',(6.28318530718,0.));
#404 = VECTOR('',#405,1.);
#405 = DIRECTION('',(0.,1.));
#406 = ( GEOMETRIC_REPRESENTATION_CONTEXT(2) 
PARAMETRIC_REPRESENTATION_CONTEXT() REPRESENTATION_CONTEXT('2D SPACE',''
  ) );
#407 = ORIENTED_EDGE('',*,*,#293,.T.);
#408 = ORIENTED_EDGE('',*,*,#385,.T.);
#409 = ORIENTED_EDGE('',*,*,#410,.F.);
#410 = EDGE_CURVE('',#386,#386,#411,.T.);
#411 = SURFACE_CURVE('',#412,(#417,#424),.PCURVE_S1.);
#412 = CIRCLE('',#413,13.6);
#413 = AXIS2_PLACEMENT_3D('',#414,#415,#416);
#414 = CARTESIAN_POINT('',(61.97,37.23,102.68));
#415 = DIRECTION('',(-0.,1.,0.));
#416 = DIRECTION('',(1.,0.,0.));
#417 = PCURVE('',#308,#418);
#418 = DEFINITIONAL_REPRESENTATION('',(#419),#423);
#419 = LINE('',#420,#421);
#420 = CARTESIAN_POINT('',(0.,0.6));
#421 = VECTOR('',#422,1.);
#422 = DIRECTION('',(1.,0.));
#423 = ( GEOMETRIC_REPRESENTATION_CONTEXT(2) 
PARAMETRIC_REPRESENTATION_CONTEXT() REPRESENTATION_CONTEXT('2D SPACE',''
  ) );
#424 = PCURVE('',#425,#430);
#425 = CYLINDRICAL_SURFACE('',#426,13.6);
#426 = AXIS2_PLACEMENT_3D('',#427,#428,#429);
#427 = CARTESIAN_POINT('',(61.97,37.23,102.68));
#428 = DIRECTION('',(0.,1.,0.));
#429 = DIRECTION('',(1.,0.,0.));
#430 = DEFINITIONAL_REPRESENTATION('',(#431),#435);
#431 = LINE('',#432,#433);
#432 = CARTESIAN_POINT('',(0.,0.));
#433 = VECTOR('',#434,1.);
#434 = DIRECTION('',(1.,0.));
#435 = ( GEOMETRIC_REPRESENTATION_CONTEXT(2) 
PARAMETRIC_REPRESENTATION_CONTEXT() REPRESENTATION_CONTEXT('2D SPACE',''
  ) );
#436 = ADVANCED_FACE('',(#437),#370,.F.);
#437 = FACE_BOUND('',#438,.T.);
#438 = EDGE_LOOP('',(#439,#462,#489,#490));
#439 = ORIENTED_EDGE('',*,*,#440,.F.);
#440 = EDGE_CURVE('',#441,#332,#443,.T.);
#441 = VERTEX_POINT('',#442);
#442 = CARTESIAN_POINT('',(66.97,37.73,102.68));
#443 = SEAM_CURVE('',#444,(#448,#455),.PCURVE_S1.);
#444 = LINE('',#445,#446);
#445 = CARTESIAN_POINT('',(66.97,37.73,102.68));
#446 = VECTOR('',#447,1.);
#447 = DIRECTION('',(0.,-1.,0.));
#448 = PCURVE('',#370,#449);
#449 = DEFINITIONAL_REPRESENTATION('',(#450),#454);
#450 = LINE('',#451,#452);
#451 = CARTESIAN_POINT('',(-0.,0.));
#452 = VECTOR('',#453,1.);
#453 = DIRECTION('',(-0.,1.));
#454 = ( GEOMETRIC_REPRESENTATION_CONTEXT(2) 
PARAMETRIC_REPRESENTATION_CONTEXT() REPRESENTATION_CONTEXT('2D SPACE',''
  ) );
#455 = PCURVE('',#370,#456);
#456 = DEFINITIONAL_REPRESENTATION('',(#457),#461);
#457 = LINE('',#458,#459);
#458 = CARTESIAN_POINT('',(-6.28318530718,0.));
#459 = VECTOR('',#460,1.);
#460 = DIRECTION('',(-0.,1.));
#461 = ( GEOMETRIC_REPRESENTATION_CONTEXT(2) 
PARAMETRIC_REPRESENTATION_CONTEXT() REPRESENTATION_CONTEXT('2D SPACE',''
  ) );
#462 = ORIENTED_EDGE('',*,*,#463,.T.);
#463 = EDGE_CURVE('',#441,#441,#464,.T.);
#464 = SURFACE_CURVE('',#465,(#470,#477),.PCURVE_S1.);
#465 = CIRCLE('',#466,5.);
#466 = AXIS2_PLACEMENT_3D('',#467,#468,#469);
#467 = CARTESIAN_POINT('',(61.97,37.73,102.68));
#468 = DIRECTION('',(-0.,1.,0.));
#469 = DIRECTION('',(1.,0.,0.));
#470 = PCURVE('',#370,#471);
#471 = DEFINITIONAL_REPRESENTATION('',(#472),#476);
#472 = LINE('',#473,#474);
#473 = CARTESIAN_POINT('',(-0.,0.));
#474 = VECTOR('',#475,1.);
#475 = DIRECTION('',(-1.,0.));
#476 = ( GEOMETRIC_REPRESENTATION_CONTEXT(2) 
PARAMETRIC_REPRESENTATION_CONTEXT() REPRESENTATION_CONTEXT('2D SPACE',''
  ) );
#477 = PCURVE('',#478,#483);
#478 = PLANE('',#479);
#479 = AXIS2_PLACEMENT_3D('',#480,#481,#482);
#480 = CARTESIAN_POINT('',(61.97,37.73,102.68));
#481 = DIRECTION('',(0.,1.,0.));
#482 = DIRECTION('',(1.,0.,0.));
#483 = DEFINITIONAL_REPRESENTATION('',(#484),#488);
#484 = CIRCLE('',#485,5.);
#485 = AXIS2_PLACEMENT_2D('',#486,#487);
#486 = CARTESIAN_POINT('',(0.,0.));
#487 = DIRECTION('',(1.,0.));
#488 = ( GEOMETRIC_REPRESENTATION_CONTEXT(2) 
PARAMETRIC_REPRESENTATION_CONTEXT() REPRESENTATION_CONTEXT('2D SPACE',''
  ) );
#489 = ORIENTED_EDGE('',*,*,#440,.T.);
#490 = ORIENTED_EDGE('',*,*,#355,.F.);
#491 = ADVANCED_FACE('',(#492),#425,.T.);
#492 = FACE_BOUND('',#493,.T.);
#493 = EDGE_LOOP('',(#494,#495,#518,#540));
#494 = ORIENTED_EDGE('',*,*,#410,.T.);
#495 = ORIENTED_EDGE('',*,*,#496,.T.);
#496 = EDGE_CURVE('',#386,#497,#499,.T.);
#497 = VERTEX_POINT('',#498);
#498 = CARTESIAN_POINT('',(75.57,37.73,102.68));
#499 = SEAM_CURVE('',#500,(#504,#511),.PCURVE_S1.);
#500 = LINE('',#501,#502);
#501 = CARTESIAN_POINT('',(75.57,37.23,102.68));
#502 = VECTOR('',#503,1.);
#503 = DIRECTION('',(0.,1.,0.));
#504 = PCURVE('',#425,#505);
#505 = DEFINITIONAL_REPRESENTATION('',(#506),#510);
#506 = LINE('',#507,#508);
#507 = CARTESIAN_POINT('',(0.,0.));
#508 = VECTOR('',#509,1.);
#509 = DIRECTION('',(0.,1.));
#510 = ( GEOMETRIC_REPRESENTATION_CONTEXT(2) 
PARAMETRIC_REPRESENTATION_CONTEXT() REPRESENTATION_CONTEXT('2D SPACE',''
  ) );
#511 = PCURVE('',#425,#512);
#512 = DEFINITIONAL_REPRESENTATION('',(#513),#517);
#513 = LINE('',#514,#515);
#514 = CARTESIAN_POINT('',(6.28318530718,0.));
#515 = VECTOR('',#516,1.);
#516 = DIRECTION('',(0.,1.));
#517 = ( GEOMETRIC_REPRESENTATION_CONTEXT(2) 
PARAMETRIC_REPRESENTATION_CONTEXT() REPRESENTATION_CONTEXT('2D SPACE',''
  ) );
#518 = ORIENTED_EDGE('',*,*,#519,.F.);
#519 = EDGE_CURVE('',#497,#497,#520,.T.);
#520 = SURFACE_CURVE('',#521,(#526,#533),.PCURVE_S1.);
#521 = CIRCLE('',#522,13.6);
#522 = AXIS2_PLACEMENT_3D('',#523,#524,#525);
#523 = CARTESIAN_POINT('',(61.97,37.73,102.68));
#524 = DIRECTION('',(-0.,1.,0.));
#525 = DIRECTION('',(1.,0.,0.));
#526 = PCURVE('',#425,#527);
#527 = DEFINITIONAL_REPRESENTATION('',(#528),#532);
#528 = LINE('',#529,#530);
#529 = CARTESIAN_POINT('',(0.,0.5));
#530 = VECTOR('',#531,1.);
#531 = DIRECTION('',(1.,0.));
#532 = ( GEOMETRIC_REPRESENTATION_CONTEXT(2) 
PARAMETRIC_REPRESENTATION_CONTEXT() REPRESENTATION_CONTEXT('2D SPACE',''
  ) );
#533 = PCURVE('',#478,#534);
#534 = DEFINITIONAL_REPRESENTATION('',(#535),#539);
#535 = CIRCLE('',#536,13.6);
#536 = AXIS2_PLACEMENT_2D('',#537,#538);
#537 = CARTESIAN_POINT('',(0.,0.));
#538 = DIRECTION('',(1.,0.));
#539 = ( GEOMETRIC_REPRESENTATION_CONTEXT(2) 
PARAMETRIC_REPRESENTATION_CONTEXT() REPRESENTATION_CONTEXT('2D SPACE',''
  ) );
#540 = ORIENTED_EDGE('',*,*,#496,.F.);
#541 = ADVANCED_FACE('',(#542,#545),#478,.T.);
#542 = FACE_BOUND('',#543,.T.);
#543 = EDGE_LOOP('',(#544));
#544 = ORIENTED_EDGE('',*,*,#519,.T.);
#545 = FACE_BOUND('',#546,.T.);
#546 = EDGE_LOOP('',(#547));
#547 = ORIENTED_EDGE('',*,*,#463,.F.);
#548 = ( GEOMETRIC_REPRESENTATION_CONTEXT(3) 
GLOBAL_UNCERTAINTY_ASSIGNED_CONTEXT((#552)) GLOBAL_UNIT_ASSIGNED_CONTEXT
((#549,#550,#551)) REPRESENTATION_CONTEXT('Context #1',
  '3D Context with UNIT and UNCERTAINTY') );
#549 = ( LENGTH_UNIT() NAMED_UNIT(*) SI_UNIT(.MILLI.,.METRE.) );
#550 = ( NAMED_UNIT(*) PLANE_ANGLE_UNIT() SI_UNIT($,.RADIAN.) );
#551 = ( NAMED_UNIT(*) SI_UNIT($,.STERADIAN.) SOLID_ANGLE_UNIT() );
#552 = UNCERTAINTY_MEASURE_WITH_UNIT(LENGTH_MEASURE(1.E-07),#549,
  'distance_accuracy_value','confusion accuracy');
#553 = PRODUCT_RELATED_PRODUCT_CATEGORY('part',$,(#7));
ENDSEC;
END-ISO-10303-21;
